<svg width="69" height="36" viewBox="0 0 69 36" fill="none" xmlns="http://www.w3.org/2000/svg">
<path d="M35.35 6V0H43.35V6H35.35ZM25.35 10V0H33.35V10H25.35ZM35.35 18V8H43.35V18H35.35ZM25.35 18V12H33.35V18H25.35Z" fill="#4FDBC8"/>
<path d="M4.13847 33H1.92785V31.6444H4.05972C4.67082 31.6444 5.18094 31.5329 5.59009 31.3099C5.99923 31.087 6.30638 30.7515 6.51154 30.3034C6.71669 29.8554 6.81927 29.2961 6.81927 28.6256C6.81927 27.9587 6.71662 27.4032 6.5113 26.9589C6.30599 26.5146 6.00235 26.1812 5.6004 25.9588C5.19844 25.7364 4.69895 25.6251 4.10191 25.6251H1.8852V24.2695H4.19707C5.06551 24.2695 5.81027 24.4437 6.43136 24.7921C7.05246 25.1404 7.53011 25.6402 7.86433 26.2913C8.19855 26.9423 8.36566 27.7205 8.36566 28.6256C8.36566 29.5344 8.19828 30.3155 7.86351 30.9691C7.52875 31.6227 7.0459 32.1246 6.41496 32.4748C5.78402 32.8249 5.02519 33 4.13847 33ZM2.74862 24.2695V33H1.18395V24.2695H2.74862ZM12.212 33.1355C11.7965 33.1355 11.4227 33.0605 11.0904 32.9106C10.7581 32.7607 10.4959 32.5388 10.3037 32.2451C10.1115 31.9513 10.0154 31.5889 10.0154 31.1578C10.0154 30.7884 10.0847 30.483 10.2233 30.2416C10.3619 30.0002 10.55 29.8072 10.7875 29.6626C11.025 29.518 11.2923 29.4086 11.5896 29.3345C11.8869 29.2604 12.1942 29.2066 12.5115 29.1731C12.8937 29.1308 13.2033 29.0938 13.4402 29.0623C13.6772 29.0307 13.8517 28.98 13.9638 28.91C14.0759 28.8401 14.132 28.7314 14.132 28.5839V28.553C14.132 28.3372 14.0886 28.1546 14.0018 28.0052C13.915 27.8559 13.7869 27.7413 13.6175 27.6615C13.4482 27.5817 13.2386 27.5419 12.9887 27.5419C12.7353 27.5419 12.5155 27.5808 12.3294 27.6588C12.1433 27.7368 11.9915 27.8381 11.8739 27.9628C11.7563 28.0875 11.6701 28.2225 11.6153 28.3678L10.2029 28.0781C10.3329 27.6909 10.5328 27.3713 10.8025 27.1193C11.0722 26.8673 11.394 26.6789 11.768 26.5542C12.142 26.4295 12.5468 26.3672 12.9826 26.3672C13.29 26.3672 13.6009 26.4037 13.9153 26.4769C14.2298 26.55 14.5183 26.6717 14.7808 26.842C15.0434 27.0123 15.2548 27.2424 15.4148 27.5321C15.5749 27.8219 15.655 28.1847 15.655 28.6205V33H14.1981V32.0967H14.1362C14.0409 32.2828 13.9074 32.4548 13.7356 32.6127C13.5638 32.7706 13.3519 32.8972 13.1 32.9925C12.8482 33.0878 12.5522 33.1355 12.212 33.1355ZM12.6025 32.0034C12.9171 32.0034 13.1892 31.9413 13.4187 31.8171C13.6481 31.6929 13.8258 31.5277 13.9516 31.3215C14.0775 31.1154 14.1404 30.8914 14.1404 30.6497V29.8744C14.0904 29.9153 14.0065 29.9531 13.8887 29.9878C13.7709 30.0225 13.6382 30.0534 13.4906 30.0804C13.343 30.1074 13.1985 30.1306 13.057 30.15C12.9155 30.1694 12.7954 30.1856 12.6967 30.1987C12.4681 30.2286 12.2624 30.2795 12.0797 30.3514C11.8969 30.4234 11.7532 30.5228 11.6485 30.6496C11.5439 30.7764 11.4915 30.9402 11.4915 31.1409C11.4915 31.3295 11.5396 31.4877 11.6357 31.6154C11.7317 31.7432 11.8631 31.8398 12.0296 31.9052C12.1962 31.9707 12.3871 32.0034 12.6025 32.0034ZM20.3483 33.1322C19.8471 33.1322 19.4027 33.0601 19.0151 32.9159C18.6275 32.7716 18.3102 32.5611 18.0633 32.2843C17.8163 32.0075 17.6545 31.6718 17.5778 31.2771L19.0037 31.0095C19.0918 31.3323 19.2507 31.5724 19.4802 31.7298C19.7097 31.8872 20.0092 31.9659 20.3788 31.9659C20.7543 31.9659 21.0521 31.8908 21.2722 31.7405C21.4924 31.5902 21.6025 31.4048 21.6025 31.1845C21.6025 30.9945 21.53 30.838 21.3852 30.7151C21.2404 30.5921 21.0178 30.4984 20.7175 30.4341L19.6023 30.1931C18.9832 30.0595 18.5214 29.8403 18.2169 29.5356C17.9124 29.2308 17.7601 28.8381 17.7601 28.3575C17.7601 27.953 17.8716 27.6019 18.0945 27.3042C18.3173 27.0066 18.6269 26.776 19.023 26.6125C19.4192 26.4489 19.8786 26.3672 20.4011 26.3672C20.8967 26.3672 21.3232 26.4374 21.6805 26.5778C22.0378 26.7182 22.3271 26.9146 22.5483 27.1671C22.7694 27.4196 22.9232 27.7163 23.0096 28.0573L21.6517 28.3223C21.5759 28.095 21.4402 27.9021 21.2446 27.7438C21.0489 27.5854 20.7746 27.5062 20.4217 27.5062C20.0985 27.5062 19.8285 27.5767 19.6117 27.7178C19.3948 27.8588 19.2864 28.0414 19.2864 28.2656C19.2864 28.4558 19.3577 28.6132 19.5005 28.7379C19.6432 28.8626 19.8814 28.9614 20.215 29.0344L21.3296 29.2688C21.9501 29.4009 22.411 29.6134 22.7123 29.9063C23.0137 30.1991 23.1643 30.5764 23.1643 31.0383C23.1643 31.452 23.0447 31.8161 22.8054 32.1304C22.5661 32.4446 22.2349 32.6902 21.8117 32.867C21.3886 33.0438 20.9008 33.1322 20.3483 33.1322ZM26.5855 29.1628V33H25.0625V24.2695H26.5644V28.0687H26.4081C26.589 27.5027 26.8577 27.0775 27.2142 26.7934C27.5707 26.5093 28.016 26.3672 28.55 26.3672C28.9999 26.3672 29.3932 26.4633 29.73 26.6555C30.0668 26.8477 30.3283 27.1274 30.5146 27.4948C30.7008 27.8621 30.7939 28.3091 30.7939 28.8356V33H29.2672V29.0691C29.2672 28.6298 29.1533 28.2856 28.9255 28.0363C28.6977 27.787 28.3841 27.6623 27.9847 27.6623C27.7158 27.6623 27.4757 27.7212 27.2644 27.8389C27.053 27.9567 26.8871 28.1271 26.7664 28.3501C26.6458 28.5732 26.5855 28.8441 26.5855 29.1628ZM36.471 33.1195C36.0963 33.1195 35.7844 33.0556 35.5355 32.9278C35.2865 32.8 35.088 32.6467 34.94 32.4679C34.7921 32.289 34.6781 32.1208 34.5983 31.9631H34.5022V33H33.0102V24.2695H34.5331V27.5339H34.5983C34.6767 27.3788 34.788 27.2105 34.9321 27.0293C35.0761 26.848 35.2721 26.6924 35.52 26.5623C35.7679 26.4322 36.0864 26.3672 36.4756 26.3672C36.9817 26.3672 37.4379 26.4962 37.8441 26.7541C38.2502 27.0121 38.5732 27.3919 38.8131 27.8936C39.0529 28.3952 39.1728 29.01 39.1728 29.738C39.1728 30.4544 39.0557 31.0644 38.8213 31.568C38.5869 32.0716 38.2663 32.4561 37.8594 32.7214C37.4525 32.9868 36.9897 33.1195 36.471 33.1195ZM36.0575 31.8661C36.3988 31.8661 36.6846 31.7733 36.915 31.5878C37.1454 31.4022 37.3194 31.1483 37.437 30.8258C37.5545 30.5034 37.6133 30.1383 37.6133 29.7305C37.6133 29.3237 37.5552 28.9617 37.4388 28.6443C37.3225 28.3268 37.1491 28.0769 36.9188 27.8944C36.6884 27.7119 36.4013 27.6206 36.0575 27.6206C35.7227 27.6206 35.4396 27.7081 35.2084 27.8831C34.9771 28.0581 34.802 28.3031 34.683 28.618C34.564 28.9329 34.5046 29.3037 34.5046 29.7305C34.5046 30.1544 34.5647 30.5266 34.6849 30.847C34.8051 31.1675 34.9815 31.4175 35.214 31.5969C35.4465 31.7764 35.7277 31.8661 36.0575 31.8661ZM43.9417 33.1322C43.3057 33.1322 42.7532 32.9912 42.2842 32.7093C41.8151 32.4273 41.4524 32.0328 41.1961 31.5257C40.9398 31.0186 40.8116 30.4291 40.8116 29.7572C40.8116 29.0778 40.9398 28.4839 41.1961 27.9756C41.4524 27.4672 41.8151 27.0721 42.2842 26.7901C42.7532 26.5082 43.3057 26.3672 43.9417 26.3672C44.5801 26.3672 45.1338 26.5082 45.6027 26.7901C46.0716 27.0721 46.4342 27.4672 46.6905 27.9756C46.9469 28.4839 47.075 29.0778 47.075 29.7572C47.075 30.4291 46.9469 31.0186 46.6905 31.5257C46.4342 32.0328 46.0716 32.4273 45.6027 32.7093C45.1338 32.9912 44.5801 33.1322 43.9417 33.1322ZM43.9417 31.8956C44.2973 31.8956 44.5927 31.7999 44.828 31.6085C45.0632 31.4171 45.2386 31.1593 45.3543 30.8352C45.4699 30.5111 45.5277 30.1503 45.5277 29.753C45.5277 29.3517 45.4699 28.9888 45.3543 28.6643C45.2386 28.3398 45.0632 28.0819 44.828 27.8906C44.5927 27.6994 44.2973 27.6037 43.9417 27.6037C43.5871 27.6037 43.2932 27.6994 43.0597 27.8906C42.8263 28.0819 42.6517 28.3391 42.5361 28.6624C42.4205 28.9857 42.3627 29.3492 42.3627 29.753C42.3627 30.1503 42.4205 30.5111 42.5361 30.8352C42.6517 31.1593 42.8263 31.4171 43.0597 31.6085C43.2932 31.7999 43.5871 31.8956 43.9417 31.8956ZM50.9542 33.1355C50.5387 33.1355 50.1648 33.0605 49.8326 32.9106C49.5003 32.7607 49.2381 32.5388 49.0459 32.2451C48.8537 31.9513 48.7576 31.5889 48.7576 31.1578C48.7576 30.7884 48.8269 30.483 48.9655 30.2416C49.1041 30.0002 49.2922 29.8072 49.5297 29.6626C49.7672 29.518 50.0345 29.4086 50.3318 29.3345C50.6291 29.2604 50.9364 29.2066 51.2537 29.1731C51.6359 29.1308 51.9455 29.0938 52.1824 29.0623C52.4194 29.0307 52.5939 28.98 52.706 28.91C52.8181 28.8401 52.8742 28.7314 52.8742 28.5839V28.553C52.8742 28.3372 52.8308 28.1546 52.744 28.0052C52.6572 27.8559 52.5291 27.7413 52.3597 27.6615C52.1904 27.5817 51.9807 27.5419 51.7309 27.5419C51.4775 27.5419 51.2577 27.5808 51.0716 27.6588C50.8855 27.7368 50.7337 27.8381 50.6161 27.9628C50.4985 28.0875 50.4123 28.2225 50.3574 28.3678L48.9451 28.0781C49.0751 27.6909 49.275 27.3713 49.5447 27.1193C49.8143 26.8673 50.1362 26.6789 50.5102 26.5542C50.8841 26.4295 51.289 26.3672 51.7248 26.3672C52.0321 26.3672 52.343 26.4037 52.6575 26.4769C52.9719 26.55 53.2605 26.6717 53.523 26.842C53.7856 27.0123 53.9969 27.2424 54.157 27.5321C54.3171 27.8219 54.3971 28.1847 54.3971 28.6205V33H52.9403V32.0967H52.8784C52.7831 32.2828 52.6495 32.4548 52.4777 32.6127C52.3059 32.7706 52.0941 32.8972 51.8422 32.9925C51.5904 33.0878 51.2943 33.1355 50.9542 33.1355ZM51.3446 32.0034C51.6593 32.0034 51.9314 31.9413 52.1609 31.8171C52.3903 31.6929 52.568 31.5277 52.6938 31.3215C52.8197 31.1154 52.8826 30.8914 52.8826 30.6497V29.8744C52.8326 29.9153 52.7487 29.9531 52.6309 29.9878C52.5131 30.0225 52.3804 30.0534 52.2328 30.0804C52.0852 30.1074 51.9407 30.1306 51.7992 30.15C51.6577 30.1694 51.5376 30.1856 51.4389 30.1987C51.2103 30.2286 51.0046 30.2795 50.8219 30.3514C50.6391 30.4234 50.4954 30.5228 50.3907 30.6496C50.286 30.7764 50.2337 30.9402 50.2337 31.1409C50.2337 31.3295 50.2817 31.4877 50.3778 31.6154C50.4739 31.7432 50.6053 31.8398 50.7718 31.9052C50.9384 31.9707 51.1293 32.0034 51.3446 32.0034ZM56.6129 33V26.4492H58.0881V27.5456H58.1584C58.2781 27.1658 58.4841 26.8732 58.7763 26.6678C59.0686 26.4624 59.4023 26.3597 59.7775 26.3597C59.864 26.3597 59.96 26.3637 60.0653 26.3719C60.1706 26.38 60.2601 26.3909 60.3339 26.4047V27.8048C60.2717 27.7844 60.17 27.766 60.0288 27.7496C59.8876 27.7333 59.7503 27.7251 59.6167 27.7251C59.3337 27.7251 59.0798 27.7857 58.855 27.9067C58.6301 28.0277 58.4541 28.1947 58.3268 28.4078C58.1995 28.6208 58.1359 28.8673 58.1359 29.1473V33H56.6129ZM64.1279 33.1195C63.6131 33.1195 63.1513 32.9868 62.7424 32.7214C62.3336 32.4561 62.012 32.0716 61.7776 31.568C61.5432 31.0644 61.4261 30.4544 61.4261 29.738C61.4261 29.01 61.546 28.3952 61.7858 27.8936C62.0257 27.3919 62.3497 27.0121 62.7578 26.7541C63.1659 26.4962 63.6211 26.3672 64.1232 26.3672C64.5125 26.3672 64.831 26.4322 65.0789 26.5623C65.3268 26.6924 65.5238 26.848 65.6698 27.0293C65.8158 27.2105 65.9261 27.3788 66.0006 27.5339H66.0658V24.2695H67.5887V33H66.0967V31.9631H66.0006C65.9233 32.1208 65.81 32.289 65.6608 32.4679C65.5115 32.6467 65.3134 32.8 65.0664 32.9278C64.8193 33.0556 64.5065 33.1195 64.1279 33.1195ZM64.5414 31.8661C64.8737 31.8661 65.1555 31.7764 65.3868 31.5969C65.618 31.4175 65.7938 31.1675 65.914 30.847C66.0342 30.5266 66.0943 30.1544 66.0943 29.7305C66.0943 29.3037 66.0349 28.9329 65.9159 28.618C65.7969 28.3031 65.6218 28.0581 65.3905 27.8831C65.1593 27.7081 64.8762 27.6206 64.5414 27.6206C64.199 27.6206 63.9123 27.7119 63.6812 27.8944C63.4501 28.0769 63.2764 28.3268 63.1601 28.6443C63.0437 28.9617 62.9856 29.3237 62.9856 29.7305C62.9856 30.1383 63.0444 30.5034 63.1619 30.8258C63.2795 31.1483 63.4545 31.4022 63.6868 31.5878C63.9192 31.7733 64.204 31.8661 64.5414 31.8661Z" fill="#4FDBC8"/>
</svg>
